<svg width="46" height="46" viewBox="0 0 46 46" fill="none" xmlns="http://www.w3.org/2000/svg">
<circle cx="23" cy="23" r="23" fill="#C4C4C4"/>
<g clip-path="url(#clip0)">
<path d="M22.7862 21.4511C24.7715 21.4511 26.4907 20.739 27.8953 19.3342C29.3 17.9295 30.012 16.2109 30.012 14.2253C30.012 12.2405 29.3 10.5216 27.8951 9.11646C26.4902 7.71205 24.7713 7 22.7862 7C20.8007 7 19.082 7.71205 17.6774 9.11669C16.2727 10.5213 15.5604 12.2402 15.5604 14.2253C15.5604 16.2109 16.2727 17.9298 17.6776 19.3344C19.0825 20.7388 20.8014 21.4511 22.7862 21.4511Z" fill="#E4E4E4"/>
<path d="M35.4294 30.0684C35.3889 29.4838 35.307 28.8462 35.1864 28.1728C35.0646 27.4944 34.9078 26.8531 34.7201 26.2669C34.5263 25.6611 34.2626 25.0628 33.9367 24.4894C33.5984 23.8943 33.201 23.3762 32.7552 22.9497C32.2889 22.5037 31.7181 22.145 31.058 21.8834C30.4002 21.6232 29.6712 21.4913 28.8914 21.4913C28.5852 21.4913 28.289 21.617 27.717 21.9894C27.365 22.2189 26.9532 22.4844 26.4937 22.7781C26.1007 23.0285 25.5683 23.2631 24.9107 23.4755C24.2691 23.6831 23.6178 23.7884 22.9748 23.7884C22.3319 23.7884 21.6807 23.6831 21.0385 23.4755C20.3816 23.2633 19.8492 23.0287 19.4567 22.7783C19.0014 22.4874 18.5894 22.2219 18.2322 21.9891C17.6609 21.6167 17.3645 21.4911 17.0582 21.4911C16.2782 21.4911 15.5494 21.6232 14.8919 21.8836C14.2322 22.1448 13.6612 22.5034 13.1945 22.95C12.7488 23.3766 12.3513 23.8946 12.0134 24.4894C11.6877 25.0628 11.4241 25.6608 11.23 26.2671C11.0425 26.8533 10.8857 27.4944 10.764 28.1728C10.6434 28.8453 10.5614 29.4832 10.5209 30.0691C10.4811 30.6431 10.4609 31.2389 10.4609 31.8406C10.4609 33.4066 10.9588 34.6744 11.9404 35.6094C12.91 36.532 14.1929 37.0001 15.7529 37.0001H30.1981C31.7582 37.0001 33.0406 36.5322 34.0104 35.6094C34.9923 34.6751 35.4901 33.4071 35.4901 31.8404C35.4899 31.2359 35.4695 30.6397 35.4294 30.0684Z" fill="#E4E4E4"/>
</g>
<defs>
<clipPath id="clip0">
<rect width="30" height="30" fill="white" transform="translate(8 7)"/>
</clipPath>
</defs>
</svg>
