<svg xmlns="http://www.w3.org/2000/svg" viewBox="0 0 364.08 519.34"><defs><style>.cls-1{fill:#fff;}</style></defs><g id="Capa_2" data-name="Capa 2"><g id="Capa_1-2" data-name="Capa 1"><path class="cls-1" d="M34.67,519.34A56.43,56.43,0,0,1,17.87,517,40.35,40.35,0,0,1,3.6,508.8a10.47,10.47,0,0,1-2.66-3.33A8.35,8.35,0,0,1,0,501.73a7.68,7.68,0,0,1,2.2-5.4A7.3,7.3,0,0,1,7.73,494a7.05,7.05,0,0,1,4.54,1.6,42.33,42.33,0,0,0,10.07,6.27A31.51,31.51,0,0,0,34.67,504a25.7,25.7,0,0,0,9.07-1.54,17.74,17.74,0,0,0,6.67-4.12A8.31,8.31,0,0,0,53,492.4a10.05,10.05,0,0,0-2.41-6.8,18.12,18.12,0,0,0-7.33-4.74,57.48,57.48,0,0,0-12.54-3A56.26,56.26,0,0,1,18,474.6,29.35,29.35,0,0,1,8.87,469a22,22,0,0,1-5.53-8,27.14,27.14,0,0,1-1.87-10.34,24.54,24.54,0,0,1,4.46-14.8A28.1,28.1,0,0,1,18,426.52a42.71,42.71,0,0,1,16.8-3.2,48.27,48.27,0,0,1,16.07,2.6A37.52,37.52,0,0,1,63,432.52c2.58,2.05,3.86,4.4,3.86,7.07a7.6,7.6,0,0,1-2.26,5.33,7.11,7.11,0,0,1-5.34,2.4,5.92,5.92,0,0,1-3.6-1.19,23.79,23.79,0,0,0-5.73-3.54,50.51,50.51,0,0,0-7.61-2.8,27.26,27.26,0,0,0-7.46-1.14,27.79,27.79,0,0,0-9.67,1.47,13.37,13.37,0,0,0-5.94,4,9.22,9.22,0,0,0-2,5.87,9.47,9.47,0,0,0,2.33,6.6,15.7,15.7,0,0,0,6.74,4.13,76.36,76.36,0,0,0,10.53,2.74,106.06,106.06,0,0,1,14.07,3.47A32.91,32.91,0,0,1,61,472.06a19.52,19.52,0,0,1,6,7.87,29.68,29.68,0,0,1,2,11.54,23.83,23.83,0,0,1-4.8,14.93A30.8,30.8,0,0,1,51.55,516,42.72,42.72,0,0,1,34.67,519.34Z"/><path class="cls-1" d="M101,509.87a7.55,7.55,0,0,1-2.53,5.8A8.43,8.43,0,0,1,92.55,518a7.88,7.88,0,0,1-8.27-8.13V432.79a7.71,7.71,0,0,1,2.41-5.8,8.4,8.4,0,0,1,6.13-2.34A8,8,0,0,1,98.48,427a7.62,7.62,0,0,1,2.47,5.8Z"/><path class="cls-1" d="M165,519.34A48.11,48.11,0,0,1,146,515.61,49.07,49.07,0,0,1,120.09,490a47.76,47.76,0,0,1,0-37.34A49.07,49.07,0,0,1,146,427.05,48.11,48.11,0,0,1,165,423.32a55.15,55.15,0,0,1,12.14,1.33,42.67,42.67,0,0,1,10.8,4,7.33,7.33,0,0,1,3,2.87,7.54,7.54,0,0,1,1,3.67,8.66,8.66,0,0,1-2.14,5.73,6.83,6.83,0,0,1-5.47,2.53,9.49,9.49,0,0,1-2.2-.26,10.56,10.56,0,0,1-2.2-.8,36.87,36.87,0,0,0-7.06-2.27,37.8,37.8,0,0,0-7.88-.8,29.85,29.85,0,0,0-15.8,4.34,32.22,32.22,0,0,0-11.33,11.6,32.64,32.64,0,0,0,0,32.07A32,32,0,0,0,149.16,499a29.85,29.85,0,0,0,15.8,4.34,53.3,53.3,0,0,0,8.81-.81,34,34,0,0,0,7.87-2.13l-1.21,4V481.59l2.28,2H167.9a8,8,0,0,1-5.8-2.27,8.22,8.22,0,0,1,0-11.47,8,8,0,0,1,5.8-2.27h21.87a7.67,7.67,0,0,1,5.74,2.34,8,8,0,0,1,2.26,5.8V504a7.28,7.28,0,0,1-1.26,4.4,11.34,11.34,0,0,1-2.87,2.8,58,58,0,0,1-13.41,5.94A52.59,52.59,0,0,1,165,519.34Z"/><path class="cls-1" d="M248.05,445.59l-28.8,67.74a8.27,8.27,0,0,1-2.87,3.94,7,7,0,0,1-4.2,1.4c-2.41,0-4.18-.67-5.34-2a7.29,7.29,0,0,1-1.73-4.93,9.11,9.11,0,0,1,.4-2.54l33.21-79.75a8.72,8.72,0,0,1,3.27-4.13,6.94,6.94,0,0,1,4.73-1.2,7.8,7.8,0,0,1,4.46,1.4,8,8,0,0,1,3,3.93L287,507.6a9.1,9.1,0,0,1,.66,3.2,7.64,7.64,0,0,1-7.47,7.87,7,7,0,0,1-4.33-1.47,9.56,9.56,0,0,1-3-4l-28.66-66.81Zm-24.67,51.47,7.33-15.33h36l2.53,15.33Z"/><path class="cls-1" d="M337.54,424.65a23.26,23.26,0,0,1,13,4,30,30,0,0,1,9.8,10.8,31.21,31.21,0,0,1,3.74,15.21,30.83,30.83,0,0,1-3.74,15.06,30.51,30.51,0,0,1-9.8,10.88,23,23,0,0,1-13,4.07H313l1.33-2.41v27.61a8.27,8.27,0,0,1-2.13,5.8,7.25,7.25,0,0,1-5.61,2.33,7.08,7.08,0,0,1-5.46-2.33,8.23,8.23,0,0,1-2.14-5.8V432.79a8,8,0,0,1,8.14-8.14Zm0,44.81a7.4,7.4,0,0,0,4.93-2.13,16.93,16.93,0,0,0,4-5.54,16.84,16.84,0,0,0,0-14.33,16.2,16.2,0,0,0-4-5.4,7.51,7.51,0,0,0-4.93-2.07H312.73l1.6-2.4v34l-1.47-2.14Z"/><path class="cls-1" d="M182,0a83.23,83.23,0,1,0,83.23,83.23A83.44,83.44,0,0,0,182,0Zm0,148a64.82,64.82,0,1,1,64.81-64.81A65,65,0,0,1,182,148Z"/><rect class="cls-1" x="173.41" y="261.86" width="17.37" height="84.06" rx="8.69"/><rect class="cls-1" x="136.78" y="301.72" width="17.37" height="44.2" rx="8.69"/><rect class="cls-1" x="98.39" y="258.75" width="17.37" height="87.17" rx="8.69"/><rect class="cls-1" x="248.6" y="310.88" width="17.37" height="35.04" rx="8.69"/><path class="cls-1" d="M110.6,231.28a8.75,8.75,0,0,1,1.21-6.68c5.93-9.19,28.28-38.76,70.29-38.17,0,0,61.05,1,81.56,61.62a8.89,8.89,0,0,1,.43,2c.46,4.52,2.32,23.1,2.18,32.41a8.76,8.76,0,0,1-3.86,7.2c-2.32,1.54-5.52,2.77-8.89,1.25a8.69,8.69,0,0,1-4.92-8V263a8.7,8.7,0,0,0-.34-2.43c-2.32-8.12-17.26-52.69-66.16-56.32,0,0-32.93-2.87-55,30.1a8.8,8.8,0,0,1-7.4,4C116.12,238.31,111.92,237,110.6,231.28Z"/><path class="cls-1" d="M210.74,263.33c.16.69,0,66.48,0,74a8.26,8.26,0,0,0,.22,1.92c.55,2.29,2.41,7,8.41,6.7,0,0,7.75,2.24,9-7.57.17-1.33,0-66.38,0-74.24a7.76,7.76,0,0,0-.17-1.67c-1.25-6.11-10.06-41.47-45.65-38.42a6.44,6.44,0,0,1-.76,0c-3.34-.05-31.36.53-44.39,32.49a8.17,8.17,0,0,0-.6,3.12v14.16a8.31,8.31,0,0,0,5.33,7.85,8.89,8.89,0,0,0,4.65.48,8.26,8.26,0,0,0,6.57-8.23v-10.5A8.41,8.41,0,0,1,154,260c2.16-4.95,9.68-18.23,28.13-18,.33,0,.66,0,1,.07C186.77,242.52,206.58,245.74,210.74,263.33Z"/><path class="cls-1" d="M60.18,339.05V254.17S75.79,151,182.1,149.57,303.9,257,303.9,257v80.65s-.36,7.87-9.4,8.28-9-6.87-9-6.87V257.58s-10.25-86.41-102.86-90.16c0,0-79.69-7-101.76,87.34v83.12s-2.35,9.95-11.74,8.26C69.1,346.14,60.18,345.86,60.18,339.05Z"/></g></g></svg>