<svg width="25" height="25" viewBox="0 0 25 25" fill="none" xmlns="http://www.w3.org/2000/svg">
<g clip-path="url(#clip0_908_331)">
<path d="M23.7989 15.415L21.7188 14.2139C21.9288 13.081 21.9288 11.9189 21.7188 10.7861L23.7989 9.58495C24.0381 9.44823 24.1456 9.16502 24.0674 8.90135C23.5254 7.16307 22.6026 5.5908 21.3965 4.28221C21.211 4.08202 20.9083 4.03319 20.6739 4.16991L18.5938 5.37108C17.7198 4.61913 16.7139 4.03807 15.6251 3.65721V1.25975C15.6251 0.986313 15.4346 0.747055 15.1661 0.688461C13.3741 0.288071 11.5381 0.307602 9.83404 0.688461C9.56548 0.747055 9.37505 0.986313 9.37505 1.25975V3.66209C8.29107 4.04784 7.28521 4.62889 6.4063 5.37596L4.33111 4.17479C4.09185 4.03807 3.794 4.08202 3.60845 4.28709C2.4024 5.59081 1.47955 7.16307 0.937555 8.90623C0.854547 9.16991 0.966852 9.45311 1.20611 9.58983L3.28619 10.791C3.07623 11.9238 3.07623 13.0859 3.28619 14.2187L1.20611 15.4199C0.966852 15.5566 0.85943 15.8398 0.937555 16.1035C1.47955 17.8418 2.4024 19.414 3.60845 20.7226C3.794 20.9228 4.09673 20.9717 4.33111 20.8349L6.41119 19.6338C7.28521 20.3857 8.29107 20.9668 9.37994 21.3476V23.75C9.37994 24.0234 9.57037 24.2627 9.83892 24.3213C11.6309 24.7217 13.4669 24.7021 15.171 24.3213C15.4395 24.2627 15.6299 24.0234 15.6299 23.75V21.3476C16.7139 20.9619 17.7198 20.3808 18.5987 19.6338L20.6788 20.8349C20.918 20.9717 21.2159 20.9277 21.4014 20.7226C22.6075 19.4189 23.5303 17.8467 24.0723 16.1035C24.1456 15.8349 24.0381 15.5517 23.7989 15.415ZM12.5001 16.4062C10.3467 16.4062 8.5938 14.6533 8.5938 12.5C8.5938 10.3467 10.3467 8.59373 12.5001 8.59373C14.6534 8.59373 16.4063 10.3467 16.4063 12.5C16.4063 14.6533 14.6534 16.4062 12.5001 16.4062Z" fill="#BA201E"/>
</g>
<defs>
<clipPath id="clip0_908_331">
<rect width="25" height="25" fill="white"/>
</clipPath>
</defs>
</svg>
