<svg width="15" height="15" viewBox="0 0 15 15" fill="none" xmlns="http://www.w3.org/2000/svg">
<g clip-path="url(#clip0_908_347)">
<path d="M7.5 8C7.36739 8 7.24021 8.05268 7.14645 8.14645C7.05268 8.24021 7 8.36739 7 8.5C7 8.63261 7.05268 8.75979 7.14645 8.85355C7.24021 8.94732 7.36739 9 7.5 9C7.63261 9 7.75979 8.94732 7.85355 8.85355C7.94732 8.75979 8 8.63261 8 8.5C8 8.36739 7.94732 8.24021 7.85355 8.14645C7.75979 8.05268 7.63261 8 7.5 8Z" fill="#BA201E"/>
<path fill-rule="evenodd" clip-rule="evenodd" d="M12 6.191L8 4.191V3H11V0H7V4.191L3 6.191V8H1V14H0V15H6V11H9V15H15V14H14V8H12V6.191ZM13 14V9H12V14H13ZM3 14H2V9H3V14ZM6 8.5C6 8.10218 6.15804 7.72064 6.43934 7.43934C6.72064 7.15804 7.10218 7 7.5 7C7.89782 7 8.27936 7.15804 8.56066 7.43934C8.84196 7.72064 9 8.10218 9 8.5C9 8.89782 8.84196 9.27936 8.56066 9.56066C8.27936 9.84196 7.89782 10 7.5 10C7.10218 10 6.72064 9.84196 6.43934 9.56066C6.15804 9.27936 6 8.89782 6 8.5Z" fill="#BA201E"/>
<path d="M8 15V12H7V15H8Z" fill="#BA201E"/>
</g>
<defs>
<clipPath id="clip0_908_347">
<rect width="15" height="15" fill="white"/>
</clipPath>
</defs>
</svg>
