<svg width="33" height="37" viewBox="0 0 33 37" fill="none" xmlns="http://www.w3.org/2000/svg">
<path d="M11.0966 12.6188C11.0951 11.5319 11.3351 10.4582 11.7991 9.47534H3.15243C2.31636 9.47534 1.51452 9.80747 0.923327 10.3987C0.332131 10.9899 0 11.7917 0 12.6278C0 13.4639 0.332131 14.2657 0.923327 14.8569C1.51452 15.4481 2.31636 15.7802 3.15243 15.7802H10.9164L6.90833 19.7883C6.45588 20.2253 6.14496 20.7881 6.01579 21.4037C5.88662 22.0194 5.94514 22.6596 6.18377 23.2417C6.42241 23.8237 6.83019 24.3208 7.35437 24.6685C7.87855 25.0163 8.49502 25.1988 9.12404 25.1925C9.95244 25.1959 10.7487 24.8722 11.3398 24.2918L15.9693 19.5631C14.5427 19.0455 13.3098 18.1015 12.4381 16.8592C11.5664 15.6169 11.098 14.1364 11.0966 12.6188V12.6188Z" fill="#8464DD"/>
<path d="M29.6418 1.6681e-05H19.8873C19.5672 -0.00116894 19.25 0.0608586 18.9539 0.182541C18.6578 0.304223 18.3887 0.483164 18.1619 0.709103C17.9351 0.935042 17.7552 1.20353 17.6324 1.49917C17.5096 1.79481 17.4464 2.11178 17.4464 2.43189V7.42174H17.2933H17.2032H17.0681H16.9691H16.834H16.7349H16.6088H16.5097L16.3836 7.47579H16.2935L16.1674 7.52983H16.0774C15.9291 7.60656 15.7848 7.69073 15.645 7.78202L15.555 7.83607L15.4469 7.90812L15.3568 7.97117L15.2577 8.05223L15.1677 8.12429L15.0686 8.19634L14.9875 8.2774L14.8975 8.35847L14.8074 8.43953L14.7263 8.52059L14.6363 8.61967L14.5552 8.70073C14.5552 8.75477 14.4561 8.80881 14.4111 8.87186L14.348 8.94392L14.258 9.06101C14.2309 9.09488 14.2068 9.13104 14.1859 9.16909L14.1229 9.26817C14.0967 9.29762 14.0754 9.33107 14.0598 9.36724V9.36724L14.0058 9.45732L13.9337 9.5744L13.8797 9.67348L13.8166 9.79958L13.7716 9.88965C13.7716 9.93468 13.7716 9.97972 13.7085 10.0338V10.1058C13.7085 10.1058 13.7085 10.1869 13.7085 10.2229V10.295V10.34V10.4211V10.4841V10.5472C13.712 10.5771 13.712 10.6073 13.7085 10.6372V10.7183V10.7813C13.7085 10.7813 13.7085 10.7813 13.7085 10.8444V10.9615V11.0696C13.7129 11.1055 13.7129 11.1417 13.7085 11.1776V11.8171C13.7085 11.7586 13.6853 11.7025 13.6439 11.6611C13.6025 11.6197 13.5464 11.5965 13.4879 11.5965C13.4294 11.5965 13.3732 11.6197 13.3318 11.6611C13.2905 11.7025 13.2672 11.7586 13.2672 11.8171C13.2672 11.8171 13.2672 11.8712 13.2672 11.8982C13.2721 11.928 13.2721 11.9584 13.2672 11.9883C13.2716 12.0151 13.2716 12.0425 13.2672 12.0693V12.1234C13.2627 12.1653 13.2627 12.2076 13.2672 12.2495C13.2672 12.2495 13.2672 12.2495 13.2672 12.3215V12.8259C13.2672 12.8259 13.2672 12.88 13.2672 12.907C13.2672 12.934 13.2672 13.0061 13.2672 13.0511C13.2672 13.0511 13.2672 13.1141 13.2672 13.1412C13.2631 13.1801 13.2631 13.2193 13.2672 13.2582V13.3033C13.2672 13.3033 13.2672 13.3663 13.2672 13.3934C13.2895 13.4668 13.2895 13.5451 13.2672 13.6185C13.2672 13.6185 13.2672 13.6185 13.2672 13.6816C13.263 13.7115 13.263 13.7418 13.2672 13.7716C13.2672 13.7716 13.2672 13.8167 13.2672 13.8437V13.9248C13.2622 13.9546 13.2622 13.985 13.2672 14.0148V14.0689V14.168V14.249V14.294C13.2672 14.294 13.2672 14.3661 13.2672 14.4021C13.2672 14.4021 13.2672 14.4742 13.2672 14.5102C13.2708 14.5401 13.2708 14.5704 13.2672 14.6003V14.6003C13.2672 14.6003 13.2672 14.6633 13.2672 14.6994C13.2704 14.7293 13.2704 14.7595 13.2672 14.7894V14.7894V14.8705L13.3213 14.9696L13.3753 15.0686C13.3779 15.0866 13.3779 15.1048 13.3753 15.1227V15.1767L13.4293 15.2578C13.4266 15.2817 13.4266 15.3059 13.4293 15.3298V15.3839V15.4469L13.4834 15.528V15.573V15.6271C13.5023 15.6609 13.5266 15.6913 13.5554 15.7171V15.7622L13.6365 15.8523C13.6397 15.8671 13.6397 15.8824 13.6365 15.8973L13.7176 15.9783V16.0234H13.7626L13.8346 16.0954L13.8887 16.1405L13.9427 16.1945L13.9968 16.2486L14.0598 16.3026L14.1229 16.3566H14.1769L14.249 16.4107L14.312 16.4557L14.3841 16.5098L14.4651 16.5728H14.5282L14.6363 16.6359L14.7263 16.6899L15.9693 17.2213L16.0594 17.2754L16.1674 17.3294H16.2575L16.3476 17.3744H16.4467H16.5277H16.5728H16.6808H16.8069H16.915H17.0501H17.1582H17.3023H17.4014V29.6239H32.0827V2.43189C32.0827 2.11178 32.0195 1.79481 31.8968 1.49917C31.774 1.20353 31.594 0.935042 31.3673 0.709103C31.1405 0.483164 30.8713 0.304223 30.5753 0.182541C30.2792 0.0608586 29.962 -0.00116894 29.6418 1.6681e-05V1.6681e-05ZM28.579 9.75454C28.579 10.0316 28.4689 10.2974 28.273 10.4933C28.0771 10.6893 27.8113 10.7993 27.5342 10.7993H21.9769C21.6998 10.7993 21.4341 10.6893 21.2381 10.4933C21.0422 10.2974 20.9321 10.0316 20.9321 9.75454V6.9714C20.9309 6.83343 20.9571 6.6966 21.0091 6.5688C21.061 6.441 21.1378 6.32475 21.2349 6.22678C21.3321 6.1288 21.4477 6.05104 21.575 5.99797C21.7024 5.9449 21.839 5.91758 21.9769 5.91758H27.5522C27.8278 5.92232 28.0903 6.03573 28.2826 6.2331C28.4749 6.43047 28.5814 6.69583 28.579 6.9714V9.75454Z" fill="#8464DD"/>
<path d="M17.4465 31.7135V35.2352C17.4465 35.5123 17.5566 35.7781 17.7525 35.974C17.9485 36.17 18.2142 36.28 18.4913 36.28H31.038C31.3151 36.28 31.5809 36.17 31.7768 35.974C31.9728 35.7781 32.0828 35.5123 32.0828 35.2352V31.7135H17.4465Z" fill="#8464DD"/>
</svg>
