<svg width="35" height="35" viewBox="0 0 35 35" fill="none" xmlns="http://www.w3.org/2000/svg">
<path d="M27.3438 0H7.65625C5.84473 0 4.375 1.46973 4.375 3.28125V31.7188C4.375 33.5303 5.84473 35 7.65625 35H27.3438C29.1553 35 30.625 33.5303 30.625 31.7188V3.28125C30.625 1.46973 29.1553 0 27.3438 0ZM14.2188 2.1875H20.7812C21.3828 2.1875 21.875 2.67969 21.875 3.28125C21.875 3.88281 21.3828 4.375 20.7812 4.375H14.2188C13.6172 4.375 13.125 3.88281 13.125 3.28125C13.125 2.67969 13.6172 2.1875 14.2188 2.1875ZM17.5 10.9375C19.9131 10.9375 21.875 12.8994 21.875 15.3125C21.875 17.7256 19.9131 19.6875 17.5 19.6875C15.0869 19.6875 13.125 17.7256 13.125 15.3125C13.125 12.8994 15.0869 10.9375 17.5 10.9375ZM25.1562 27.125C25.1562 27.8496 24.4727 28.4375 23.625 28.4375H11.375C10.5273 28.4375 9.84375 27.8496 9.84375 27.125V25.8125C9.84375 23.6387 11.9014 21.875 14.4375 21.875H14.7793C15.6201 22.2236 16.5361 22.4219 17.5 22.4219C18.4639 22.4219 19.3867 22.2236 20.2207 21.875H20.5625C23.0986 21.875 25.1562 23.6387 25.1562 25.8125V27.125Z" fill="#ba201e"/>
</svg>
