<svg width="35" height="35" viewBox="0 0 35 35" fill="none" xmlns="http://www.w3.org/2000/svg">
<path d="M5.25 15.75C7.18047 15.75 8.75 14.1805 8.75 12.25C8.75 10.3195 7.18047 8.75 5.25 8.75C3.31953 8.75 1.75 10.3195 1.75 12.25C1.75 14.1805 3.31953 15.75 5.25 15.75ZM29.75 15.75C31.6805 15.75 33.25 14.1805 33.25 12.25C33.25 10.3195 31.6805 8.75 29.75 8.75C27.8195 8.75 26.25 10.3195 26.25 12.25C26.25 14.1805 27.8195 15.75 29.75 15.75ZM31.5 17.5H28C27.0375 17.5 26.168 17.8883 25.5336 18.5172C27.7375 19.7258 29.3016 21.9078 29.6406 24.5H33.25C34.218 24.5 35 23.718 35 22.75V21C35 19.0695 33.4305 17.5 31.5 17.5ZM17.5 17.5C20.8852 17.5 23.625 14.7602 23.625 11.375C23.625 7.98984 20.8852 5.25 17.5 5.25C14.1148 5.25 11.375 7.98984 11.375 11.375C11.375 14.7602 14.1148 17.5 17.5 17.5ZM21.7 19.25H21.2461C20.1086 19.7969 18.8453 20.125 17.5 20.125C16.1547 20.125 14.8969 19.7969 13.7539 19.25H13.3C9.82187 19.25 7 22.0719 7 25.55V27.125C7 28.5742 8.17578 29.75 9.625 29.75H25.375C26.8242 29.75 28 28.5742 28 27.125V25.55C28 22.0719 25.1781 19.25 21.7 19.25ZM9.46641 18.5172C8.83203 17.8883 7.9625 17.5 7 17.5H3.5C1.56953 17.5 0 19.0695 0 21V22.75C0 23.718 0.782031 24.5 1.75 24.5H5.35391C5.69844 21.9078 7.2625 19.7258 9.46641 18.5172Z" fill="#ba201e"/>
</svg>
