<svg width="36" height="36" viewBox="0 0 36 36" fill="none" xmlns="http://www.w3.org/2000/svg">
<g clip-path="url(#clip0_140_77)">
<path d="M18.36 0.928955C8.99475 0.928955 1.40686 8.51685 1.40686 17.8821C1.40686 27.2473 8.99475 34.8352 18.36 34.8352C27.7252 34.8352 35.3131 27.2473 35.3131 17.8821C35.3131 8.51685 27.7252 0.928955 18.36 0.928955ZM26.6725 22.3323C26.9938 22.6536 26.9938 23.1731 26.6725 23.4944L23.9655 26.1946C23.6442 26.5159 23.1246 26.5159 22.8033 26.1946L18.36 21.7102L13.9098 26.1946C13.5885 26.5159 13.069 26.5159 12.7477 26.1946L10.0475 23.4875C9.7262 23.1663 9.7262 22.6467 10.0475 22.3254L14.5319 17.8821L10.0475 13.4319C9.7262 13.1106 9.7262 12.5911 10.0475 12.2698L12.7545 9.56274C13.0758 9.24146 13.5953 9.24146 13.9166 9.56274L18.36 14.054L22.8102 9.56958C23.1315 9.24829 23.651 9.24829 23.9723 9.56958L26.6793 12.2766C27.0006 12.5979 27.0006 13.1174 26.6793 13.4387L22.1881 17.8821L26.6725 22.3323Z" fill="#ba201e"/>
</g>
<defs>
<clipPath id="clip0_140_77">
<rect width="35" height="35" fill="white" transform="translate(0.859985 0.38208)"/>
</clipPath>
</defs>
</svg>
