<svg width="35" height="35" viewBox="0 0 35 35" fill="none" xmlns="http://www.w3.org/2000/svg">
<path fill-rule="evenodd" clip-rule="evenodd" d="M1.75 4.8125C1.75 4.4644 1.88828 4.13056 2.13442 3.88442C2.38056 3.63828 2.7144 3.5 3.0625 3.5H21.4375C21.7856 3.5 22.1194 3.63828 22.3656 3.88442C22.6117 4.13056 22.75 4.4644 22.75 4.8125C22.75 5.1606 22.6117 5.49444 22.3656 5.74058C22.1194 5.98672 21.7856 6.125 21.4375 6.125H21V30.1875C21 30.5356 20.8617 30.8694 20.6156 31.1156C20.3694 31.3617 20.0356 31.5 19.6875 31.5H17.0625C16.7144 31.5 16.3806 31.3617 16.1344 31.1156C15.8883 30.8694 15.75 30.5356 15.75 30.1875V25.8125C15.75 25.4644 15.6117 25.1306 15.3656 24.8844C15.1194 24.6383 14.7856 24.5 14.4375 24.5H10.0625C9.7144 24.5 9.38056 24.6383 9.13442 24.8844C8.88828 25.1306 8.75 25.4644 8.75 25.8125V30.1875C8.75 30.5356 8.61172 30.8694 8.36558 31.1156C8.11944 31.3617 7.7856 31.5 7.4375 31.5H3.0625C2.7144 31.5 2.38056 31.3617 2.13442 31.1156C1.88828 30.8694 1.75 30.5356 1.75 30.1875C1.75 29.8394 1.88828 29.5056 2.13442 29.2594C2.38056 29.0133 2.7144 28.875 3.0625 28.875H3.5V6.125H3.0625C2.7144 6.125 2.38056 5.98672 2.13442 5.74058C1.88828 5.49444 1.75 5.1606 1.75 4.8125V4.8125ZM7 9.625C7 9.39294 7.09219 9.17038 7.25628 9.00628C7.42038 8.84219 7.64294 8.75 7.875 8.75H9.625C9.85706 8.75 10.0796 8.84219 10.2437 9.00628C10.4078 9.17038 10.5 9.39294 10.5 9.625V11.375C10.5 11.6071 10.4078 11.8296 10.2437 11.9937C10.0796 12.1578 9.85706 12.25 9.625 12.25H7.875C7.64294 12.25 7.42038 12.1578 7.25628 11.9937C7.09219 11.8296 7 11.6071 7 11.375V9.625ZM7.875 15.75C7.64294 15.75 7.42038 15.8422 7.25628 16.0063C7.09219 16.1704 7 16.3929 7 16.625V18.375C7 18.6071 7.09219 18.8296 7.25628 18.9937C7.42038 19.1578 7.64294 19.25 7.875 19.25H9.625C9.85706 19.25 10.0796 19.1578 10.2437 18.9937C10.4078 18.8296 10.5 18.6071 10.5 18.375V16.625C10.5 16.3929 10.4078 16.1704 10.2437 16.0063C10.0796 15.8422 9.85706 15.75 9.625 15.75H7.875ZM14 9.625C14 9.39294 14.0922 9.17038 14.2563 9.00628C14.4204 8.84219 14.6429 8.75 14.875 8.75H16.625C16.8571 8.75 17.0796 8.84219 17.2437 9.00628C17.4078 9.17038 17.5 9.39294 17.5 9.625V11.375C17.5 11.6071 17.4078 11.8296 17.2437 11.9937C17.0796 12.1578 16.8571 12.25 16.625 12.25H14.875C14.6429 12.25 14.4204 12.1578 14.2563 11.9937C14.0922 11.8296 14 11.6071 14 11.375V9.625ZM14.875 15.75C14.6429 15.75 14.4204 15.8422 14.2563 16.0063C14.0922 16.1704 14 16.3929 14 16.625V18.375C14 18.6071 14.0922 18.8296 14.2563 18.9937C14.4204 19.1578 14.6429 19.25 14.875 19.25H16.625C16.8571 19.25 17.0796 19.1578 17.2437 18.9937C17.4078 18.8296 17.5 18.6071 17.5 18.375V16.625C17.5 16.3929 17.4078 16.1704 17.2437 16.0063C17.0796 15.8422 16.8571 15.75 16.625 15.75H14.875ZM24.9375 10.5C24.5894 10.5 24.2556 10.6383 24.0094 10.8844C23.7633 11.1306 23.625 11.4644 23.625 11.8125V29.75C23.625 30.2141 23.8094 30.6592 24.1376 30.9874C24.4658 31.3156 24.9109 31.5 25.375 31.5H31.9375C32.2856 31.5 32.6194 31.3617 32.8656 31.1156C33.1117 30.8694 33.25 30.5356 33.25 30.1875C33.25 29.8394 33.1117 29.5056 32.8656 29.2594C32.6194 29.0133 32.2856 28.875 31.9375 28.875H31.5V13.125H31.9375C32.2856 13.125 32.6194 12.9867 32.8656 12.7406C33.1117 12.4944 33.25 12.1606 33.25 11.8125C33.25 11.4644 33.1117 11.1306 32.8656 10.8844C32.6194 10.6383 32.2856 10.5 31.9375 10.5H24.9375ZM25.8125 16.625C25.8125 16.3929 25.9047 16.1704 26.0688 16.0063C26.2329 15.8422 26.4554 15.75 26.6875 15.75H28.4375C28.6696 15.75 28.8921 15.8422 29.0562 16.0063C29.2203 16.1704 29.3125 16.3929 29.3125 16.625V18.375C29.3125 18.6071 29.2203 18.8296 29.0562 18.9937C28.8921 19.1578 28.6696 19.25 28.4375 19.25H26.6875C26.4554 19.25 26.2329 19.1578 26.0688 18.9937C25.9047 18.8296 25.8125 18.6071 25.8125 18.375V16.625ZM26.6875 22.75C26.4554 22.75 26.2329 22.8422 26.0688 23.0063C25.9047 23.1704 25.8125 23.3929 25.8125 23.625V25.375C25.8125 25.6071 25.9047 25.8296 26.0688 25.9937C26.2329 26.1578 26.4554 26.25 26.6875 26.25H28.4375C28.6696 26.25 28.8921 26.1578 29.0562 25.9937C29.2203 25.8296 29.3125 25.6071 29.3125 25.375V23.625C29.3125 23.3929 29.2203 23.1704 29.0562 23.0063C28.8921 22.8422 28.6696 22.75 28.4375 22.75H26.6875Z" fill="#ba201e"/>
</svg>
