<svg width="35" height="35" viewBox="0 0 35 35" fill="none" xmlns="http://www.w3.org/2000/svg">
<g clip-path="url(#clip0_151_63)">
<path d="M34.0362 9.71387L30.8848 12.8652C30.5635 13.1865 30.044 13.1865 29.7227 12.8652L22.1348 5.27734C21.8135 4.95605 21.8135 4.43652 22.1348 4.11523L25.2862 0.963867C26.5645 -0.314453 28.6426 -0.314453 29.9278 0.963867L34.0362 5.07227C35.3213 6.35059 35.3213 8.42871 34.0362 9.71387ZM19.4278 6.82227L1.47659 24.7734L0.0273719 33.0791C-0.17087 34.2002 0.806669 35.1709 1.92776 34.9795L10.2334 33.5234L28.1846 15.5723C28.5059 15.251 28.5059 14.7314 28.1846 14.4102L20.5967 6.82227C20.2686 6.50098 19.7491 6.50098 19.4278 6.82227V6.82227ZM8.48343 23.2354C8.10745 22.8594 8.10745 22.2578 8.48343 21.8818L19.0108 11.3545C19.3867 10.9785 19.9883 10.9785 20.3643 11.3545C20.7403 11.7305 20.7403 12.332 20.3643 12.708L9.83694 23.2354C9.46097 23.6113 8.8594 23.6113 8.48343 23.2354V23.2354ZM6.01565 28.9844H9.2969V31.4658L4.88772 32.2383L2.76175 30.1123L3.53421 25.7031H6.01565V28.9844Z" fill="#ba201e"/>
</g>
<defs>
<clipPath id="clip0_151_63">
<rect width="35" height="35" fill="white"/>
</clipPath>
</defs>
</svg>
