<svg width="48" height="47" viewBox="0 0 48 47" fill="none" xmlns="http://www.w3.org/2000/svg">
<path d="M15.1875 12.4844V22.0312H29.2664L24.4305 17.1945C24.1667 16.9168 24.0218 16.547 24.0267 16.164C24.0316 15.781 24.1859 15.4151 24.4568 15.1443C24.7276 14.8734 25.0935 14.7191 25.4765 14.7142C25.8595 14.7093 26.2293 14.8542 26.507 15.118L33.8507 22.4618C34.126 22.7372 34.2806 23.1106 34.2806 23.5C34.2806 23.8894 34.126 24.2628 33.8507 24.5382L26.507 31.882C26.2293 32.1458 25.8595 32.2907 25.4765 32.2858C25.0935 32.2809 24.7276 32.1266 24.4568 31.8557C24.1859 31.5849 24.0316 31.219 24.0267 30.836C24.0218 30.453 24.1667 30.0832 24.4305 29.8055L29.2664 24.9688H15.1875V34.5156C15.189 35.8786 15.731 37.1852 16.6948 38.149C17.6585 39.1127 18.9652 39.6548 20.3281 39.6562H39.4219C40.7848 39.6548 42.0915 39.1127 43.0552 38.149C44.019 37.1852 44.561 35.8786 44.5625 34.5156V12.4844C44.561 11.1214 44.019 9.81475 43.0552 8.85101C42.0915 7.88728 40.7848 7.34521 39.4219 7.34375H20.3281C18.9652 7.34521 17.6585 7.88728 16.6948 8.85101C15.731 9.81475 15.189 11.1214 15.1875 12.4844V12.4844ZM4.90625 22.0312C4.51671 22.0312 4.14313 22.186 3.86769 22.4614C3.59224 22.7369 3.4375 23.1105 3.4375 23.5C3.4375 23.8895 3.59224 24.2631 3.86769 24.5386C4.14313 24.814 4.51671 24.9688 4.90625 24.9688H15.1875V22.0312H4.90625Z" fill="#8464DD"/>
</svg>
