<svg width="35" height="35" viewBox="0 0 35 35" fill="none" xmlns="http://www.w3.org/2000/svg">
<g clip-path="url(#clip0_140_69)">
<path d="M34.0013 24.7323L26.345 21.451C26.018 21.3117 25.6545 21.2823 25.3092 21.3673C24.964 21.4524 24.6558 21.6473 24.431 21.9227L21.0403 26.0653C15.7191 23.5564 11.4367 19.274 8.92773 13.9527L13.0703 10.5621C13.3463 10.3376 13.5416 10.0294 13.6267 9.68403C13.7118 9.33867 13.6821 8.97497 13.542 8.64801L10.2607 0.991763C10.107 0.639308 9.83512 0.35154 9.49194 0.17808C9.14876 0.00462071 8.75582 -0.0436585 8.38086 0.0415677L1.27148 1.68219C0.909979 1.76567 0.587443 1.96922 0.356518 2.25961C0.125593 2.55001 -8.32761e-05 2.9101 4.13998e-08 3.28112C4.13998e-08 20.8153 14.2119 34.9999 31.7188 34.9999C32.0899 35.0001 32.4501 34.8745 32.7407 34.6436C33.0312 34.4126 33.2349 34.09 33.3184 33.7284L34.959 26.619C35.0437 26.2422 34.9944 25.8477 34.8196 25.5034C34.6448 25.159 34.3554 24.8863 34.0013 24.7323V24.7323Z" fill="#ba201e"/>
</g>
<defs>
<clipPath id="clip0_140_69">
<rect width="35" height="35" fill="white"/>
</clipPath>
</defs>
</svg>
