<svg width="24" height="24" viewBox="0 0 24 24" fill="none" xmlns="http://www.w3.org/2000/svg">
<path d="M2 22V12H6V8C6 6.33333 6.58333 4.91667 7.75 3.75C8.91667 2.58333 10.3333 2 12 2H16C17.6667 2 19.0833 2.58333 20.25 3.75C21.4167 4.91667 22 6.33333 22 8V22H20V19H16V22H2ZM16 17H20V8C20 6.9 19.6083 5.95833 18.825 5.175C18.0417 4.39167 17.1 4 16 4H12C10.9 4 9.95833 4.39167 9.175 5.175C8.39167 5.95833 8 6.9 8 8V12H16V17ZM10 10V8H18V10H10ZM9 18.6L14 15.75V14L9 16.85L4 14V15.75L9 18.6Z" fill="#BA201E"/>
</svg>
