<svg width="35" height="35" viewBox="0 0 35 35" fill="none" xmlns="http://www.w3.org/2000/svg">
<path d="M31.9922 32.8125H30.625V1.64062C30.625 0.734521 29.8905 0 28.9844 0H6.01562C5.10952 0 4.375 0.734521 4.375 1.64062V32.8125H3.00781C2.55479 32.8125 2.1875 33.1798 2.1875 33.6328V35H32.8125V33.6328C32.8125 33.1798 32.4452 32.8125 31.9922 32.8125ZM10.9375 5.19531C10.9375 4.74229 11.3048 4.375 11.7578 4.375H14.4922C14.9452 4.375 15.3125 4.74229 15.3125 5.19531V7.92969C15.3125 8.38271 14.9452 8.75 14.4922 8.75H11.7578C11.3048 8.75 10.9375 8.38271 10.9375 7.92969V5.19531ZM10.9375 11.7578C10.9375 11.3048 11.3048 10.9375 11.7578 10.9375H14.4922C14.9452 10.9375 15.3125 11.3048 15.3125 11.7578V14.4922C15.3125 14.9452 14.9452 15.3125 14.4922 15.3125H11.7578C11.3048 15.3125 10.9375 14.9452 10.9375 14.4922V11.7578ZM14.4922 21.875H11.7578C11.3048 21.875 10.9375 21.5077 10.9375 21.0547V18.3203C10.9375 17.8673 11.3048 17.5 11.7578 17.5H14.4922C14.9452 17.5 15.3125 17.8673 15.3125 18.3203V21.0547C15.3125 21.5077 14.9452 21.875 14.4922 21.875ZM19.6875 32.8125H15.3125V27.0703C15.3125 26.6173 15.6798 26.25 16.1328 26.25H18.8672C19.3202 26.25 19.6875 26.6173 19.6875 27.0703V32.8125ZM24.0625 21.0547C24.0625 21.5077 23.6952 21.875 23.2422 21.875H20.5078C20.0548 21.875 19.6875 21.5077 19.6875 21.0547V18.3203C19.6875 17.8673 20.0548 17.5 20.5078 17.5H23.2422C23.6952 17.5 24.0625 17.8673 24.0625 18.3203V21.0547ZM24.0625 14.4922C24.0625 14.9452 23.6952 15.3125 23.2422 15.3125H20.5078C20.0548 15.3125 19.6875 14.9452 19.6875 14.4922V11.7578C19.6875 11.3048 20.0548 10.9375 20.5078 10.9375H23.2422C23.6952 10.9375 24.0625 11.3048 24.0625 11.7578V14.4922ZM24.0625 7.92969C24.0625 8.38271 23.6952 8.75 23.2422 8.75H20.5078C20.0548 8.75 19.6875 8.38271 19.6875 7.92969V5.19531C19.6875 4.74229 20.0548 4.375 20.5078 4.375H23.2422C23.6952 4.375 24.0625 4.74229 24.0625 5.19531V7.92969Z" fill="#ba201e"/>
</svg>
