<svg width="35" height="35" viewBox="0 0 35 35" fill="none" xmlns="http://www.w3.org/2000/svg">
<g clip-path="url(#clip0_140_71)">
<path d="M29.5312 17.5001H12.5781V10.4522C12.5781 7.74518 14.7451 5.49616 17.4521 5.46882C20.1865 5.44147 22.4219 7.66315 22.4219 10.3907V11.4844C22.4219 12.3936 23.1533 13.1251 24.0625 13.1251H26.25C27.1592 13.1251 27.8906 12.3936 27.8906 11.4844V10.3907C27.8906 4.64851 23.208 -0.0204405 17.4658 6.73011e-05C11.7236 0.0205751 7.10938 4.75104 7.10938 10.4932V17.5001H5.46875C3.65723 17.5001 2.1875 18.9698 2.1875 20.7813V31.7188C2.1875 33.5303 3.65723 35.0001 5.46875 35.0001H29.5312C31.3428 35.0001 32.8125 33.5303 32.8125 31.7188V20.7813C32.8125 18.9698 31.3428 17.5001 29.5312 17.5001ZM20.2344 27.8907C20.2344 29.4014 19.0107 30.6251 17.5 30.6251C15.9893 30.6251 14.7656 29.4014 14.7656 27.8907V24.6094C14.7656 23.0987 15.9893 21.8751 17.5 21.8751C19.0107 21.8751 20.2344 23.0987 20.2344 24.6094V27.8907Z" fill="#ba201e"/>
</g>
<defs>
<clipPath id="clip0_140_71">
<rect width="35" height="35" fill="white"/>
</clipPath>
</defs>
</svg>
