<svg width="35" height="35" viewBox="0 0 35 35" fill="none" xmlns="http://www.w3.org/2000/svg">
<path d="M34.4859 23.4555L29.5477 18.5227C28.8914 17.8664 28 17.5 27.0703 17.5H22.7336C21.7656 17.5 20.9836 18.282 20.9836 19.25V23.5813C20.9836 24.5109 21.35 25.3969 22.0062 26.0531L26.9445 30.9859C27.6281 31.6695 28.7383 31.6695 29.4219 30.9859L34.4805 25.9273C35.1695 25.2438 35.1695 24.1391 34.4859 23.4555ZM24.4891 22.307C23.7617 22.307 23.1766 21.7219 23.1766 20.9945C23.1766 20.2672 23.7617 19.682 24.4891 19.682C25.2164 19.682 25.8016 20.2672 25.8016 20.9945C25.8016 21.7164 25.2164 22.307 24.4891 22.307ZM12.25 17.4945C16.1164 17.4945 19.25 14.3609 19.25 10.4945C19.25 6.63359 16.1164 3.5 12.25 3.5C8.38359 3.5 5.25 6.63359 5.25 10.5C5.25 14.3609 8.38359 17.4945 12.25 17.4945V17.4945ZM19.2391 23.5758V19.5781C18.5719 19.3813 17.8773 19.2391 17.15 19.2391H16.2367C15.0227 19.7969 13.6719 20.1141 12.25 20.1141C10.8281 20.1141 9.48281 19.7969 8.26328 19.2391H7.35C3.29219 19.2445 0 22.5367 0 26.5945V28.8695C0 30.3187 1.17578 31.4945 2.625 31.4945H21.875C22.7227 31.4945 23.4664 31.0844 23.9477 30.4609L20.7758 27.2891C19.7859 26.2992 19.2391 24.9813 19.2391 23.5758V23.5758Z" fill="#ba201e"/>
</svg>
